<?xml version="1.0" encoding="UTF-8" standalone="no"?>
<!DOCTYPE svg PUBLIC "-//W3C//DTD SVG 1.1//EN" "http://www.w3.org/Graphics/SVG/1.1/DTD/svg11.dtd">
<svg width="100%" height="100%" viewBox="0 0 296 294" version="1.1" xmlns="http://www.w3.org/2000/svg" xmlns:xlink="http://www.w3.org/1999/xlink" xml:space="preserve" xmlns:serif="http://www.serif.com/" style="fill-rule:evenodd;clip-rule:evenodd;stroke-linejoin:round;stroke-miterlimit:2;">
    <g transform="matrix(1,0,0,1,-173.731,-167.386)">
        <g transform="matrix(0.898754,0,0,0.898112,-713.711,-1261.97)">
            <path d="M1277.45,1733.1L1277.45,1630.83L1178.42,1630.83L1178.42,1645.61L1262.69,1645.61C1262.69,1645.61 1262.69,1733.1 1262.69,1733.1L1277.45,1733.1Z" style="fill:rgb(196,77,52);"/>
        </g>
        <g transform="matrix(0.650645,0,0,0.644471,-534.419,-577.689)">
            <path d="M1296.23,1267.31L1142.66,1267.31L1142.66,1557.06L1432.58,1557.06L1432.58,1411.16L1412.19,1411.16L1412.19,1536.48C1412.19,1536.48 1163.05,1536.48 1163.05,1536.48C1163.05,1536.48 1163.05,1287.89 1163.05,1287.89C1163.05,1287.89 1296.23,1287.89 1296.23,1287.89L1296.23,1267.31Z" style="fill:rgb(196,77,52);"/>
        </g>
    </g>
</svg>
