<?xml version="1.0" encoding="UTF-8" standalone="no"?>
<!DOCTYPE svg PUBLIC "-//W3C//DTD SVG 1.1//EN" "http://www.w3.org/Graphics/SVG/1.1/DTD/svg11.dtd">
<svg width="100%" height="100%" viewBox="0 0 28 28" version="1.1" xmlns="http://www.w3.org/2000/svg" xmlns:xlink="http://www.w3.org/1999/xlink" xml:space="preserve" xmlns:serif="http://www.serif.com/" style="fill-rule:evenodd;clip-rule:evenodd;stroke-linejoin:round;stroke-miterlimit:2;">
    <g transform="matrix(1,0,0,1,-1669.53,-1775.73)">
        <g transform="matrix(0.072884,0,0,0.072884,1598.79,1662)">
            <g transform="matrix(0.841159,0,0,0.833176,49.9205,597.191)">
                <path d="M1296.23,1268.28L1143.63,1268.28L1143.63,1556.09L1431.62,1556.09L1431.62,1411.16L1413.16,1411.16L1413.16,1537.45C1413.16,1537.45 1162.09,1537.45 1162.09,1537.45C1162.09,1537.45 1162.09,1286.92 1162.09,1286.92C1162.09,1286.92 1296.23,1286.92 1296.23,1286.92L1296.23,1268.28Z" style="fill:rgb(196,77,52);"/>
            </g>
            <g transform="matrix(1,0,0,1,25.3314,-23.5553)">
                <g transform="matrix(1,0,0,1,-1.55639,-7.60281e-13)">
                    <path d="M1264,1632.16L1138.57,1757.59L1150.7,1769.71L1276.13,1644.28L1264,1632.16Z" style="fill:rgb(196,77,52);"/>
                </g>
                <g transform="matrix(1.16192,0,0,1.16109,-207.2,-263.893)">
                    <path d="M1277.45,1733.1L1277.45,1630.83L1178.42,1630.83L1178.42,1645.61L1262.69,1645.61C1262.69,1645.61 1262.69,1733.1 1262.69,1733.1L1277.45,1733.1Z" style="fill:rgb(196,77,52);"/>
                </g>
            </g>
        </g>
    </g>
</svg>
