<?xml version="1.0" encoding="UTF-8" standalone="no"?>
<!DOCTYPE svg PUBLIC "-//W3C//DTD SVG 1.1//EN" "http://www.w3.org/Graphics/SVG/1.1/DTD/svg11.dtd">
<svg width="100%" height="100%" viewBox="0 0 39 35" version="1.1" xmlns="http://www.w3.org/2000/svg" xmlns:xlink="http://www.w3.org/1999/xlink" xml:space="preserve" xmlns:serif="http://www.serif.com/" style="fill-rule:evenodd;clip-rule:evenodd;stroke-linejoin:round;stroke-miterlimit:2;">
    <g transform="matrix(1,0,0,1,-488.934,-90.051)">
        <g transform="matrix(4.16645,0,0,4.16645,-138.455,-1411.02)">
            <path d="M159.909,364.449C159.909,364.738 159.827,364.949 159.663,365.081C159.499,365.214 159.288,365.281 159.03,365.281C158.859,365.281 158.446,365.197 157.794,365.029C157.142,364.861 156.409,364.73 155.597,364.636C155.948,365.12 156.276,365.525 156.581,365.849C156.886,366.173 157.14,366.445 157.343,366.663C157.554,366.89 157.718,367.089 157.835,367.261C157.952,367.433 158.011,367.617 158.011,367.812C158.011,368.023 157.917,368.206 157.73,368.363C157.542,368.519 157.343,368.597 157.132,368.597C156.991,368.597 156.859,368.556 156.734,368.474C156.609,368.392 156.503,368.277 156.417,368.128C156.292,367.902 156.169,367.538 156.048,367.038C155.927,366.538 155.659,365.804 155.245,364.835C154.87,365.765 154.609,366.501 154.46,367.044C154.312,367.587 154.183,367.949 154.073,368.128C153.972,368.285 153.868,368.402 153.763,368.48C153.657,368.558 153.523,368.597 153.359,368.597C153.14,368.597 152.939,368.523 152.755,368.374C152.571,368.226 152.48,368.038 152.48,367.812C152.48,367.624 152.534,367.449 152.644,367.285C152.753,367.12 152.921,366.913 153.148,366.663C153.343,366.46 153.603,366.183 153.927,365.831C154.251,365.48 154.573,365.081 154.894,364.636C154.128,364.714 153.415,364.841 152.755,365.017C152.095,365.193 151.663,365.281 151.46,365.281C151.202,365.281 150.991,365.216 150.827,365.087C150.663,364.958 150.581,364.745 150.581,364.449C150.581,364.183 150.663,363.978 150.827,363.833C150.991,363.689 151.202,363.617 151.46,363.617C151.694,363.617 152.107,363.699 152.696,363.863C153.286,364.027 154.019,364.152 154.894,364.238C154.589,363.824 154.269,363.431 153.933,363.06C153.597,362.689 153.335,362.406 153.148,362.21C152.929,361.976 152.763,361.775 152.65,361.607C152.536,361.439 152.48,361.257 152.48,361.062C152.48,360.851 152.573,360.667 152.761,360.511C152.948,360.355 153.148,360.277 153.359,360.277C153.499,360.277 153.63,360.316 153.751,360.394C153.872,360.472 153.98,360.589 154.073,360.745C154.183,360.933 154.327,361.353 154.507,362.005C154.687,362.658 154.933,363.335 155.245,364.038C155.597,363.242 155.853,362.544 156.013,361.947C156.173,361.349 156.308,360.949 156.417,360.745C156.503,360.597 156.607,360.482 156.728,360.4C156.849,360.318 156.984,360.277 157.132,360.277C157.351,360.277 157.552,360.351 157.735,360.499C157.919,360.648 158.011,360.835 158.011,361.062C158.011,361.382 157.794,361.757 157.36,362.187C156.927,362.617 156.339,363.3 155.597,364.238C156.441,364.144 157.173,364.017 157.794,363.857C158.415,363.697 158.827,363.617 159.03,363.617C159.288,363.617 159.499,363.687 159.663,363.828C159.827,363.968 159.909,364.175 159.909,364.449Z" style="fill:rgb(242,102,73);fill-rule:nonzero;"/>
        </g>
    </g>
</svg>
